<svg xmlns="http://www.w3.org/2000/svg" viewBox="0 0 60 66" opacity="0.15">
  <g transform="translate(30,30) scale(0.339) translate(-340,-113)">
    <path fill="#C84B1F" d="M340 55 C365 75 385 100 375 125 C368 142 378 155 372 163 Q356 173 340 171 Q324 173 308 163 C302 155 312 142 305 125 C295 100 315 75 340 55Z"/>
    <path fill="#D4935A" d="M340 70 C360 88 372 110 364 130 C358 144 366 155 360 163 Q350 170 340 168 Q330 170 320 163 C314 155 322 144 316 130 C308 110 320 88 340 70Z"/>
    <path fill="#E8C87A" d="M340 88 C352 103 357 120 351 135 C347 146 352 154 347 161 Q344 167 340 165 Q336 167 333 161 C328 154 333 146 329 135 C323 120 328 103 340 88Z"/>
  </g>
  <ellipse cx="30" cy="51" rx="14" ry="4" fill="#C84B1F" opacity="0.2"/>
</svg>
